<svg id="Capa_1" data-name="Capa 1" xmlns="http://www.w3.org/2000/svg" viewBox="0 0 414.7 425.31"><path d="M442.15,247.3l27.77,27.75L152.45,592.45,124.7,564.69Q283.1,406.34,442.15,247.3Z" transform="translate(-92.82 -204.96)"/><path d="M419,385.26c29.19,37.37,31.47,101.46-11,144.47s-106.91,42-145.62,12.07Z" transform="translate(-92.82 -204.96)"/><path d="M204,216.11c-78.27,51.72-81.54,168.58-.1,223.35-17.13,6.29-61.22-13.12-82.14-36.16A112.39,112.39,0,0,1,104,279.17C126.76,232.49,172.2,215.12,204,216.11Z" transform="translate(-92.82 -204.96)"/><path d="M236,241c11.62-.77,21.64-1.56,31.67-2,3-.15,4.51-1.19,5.47-4.07,3.21-9.67,6.68-19.25,10.43-29.95,3.16,7.59,6.75,14.07,8.56,21,2.59,10,7.9,13.85,18.2,12.49,6.82-.89,13.86-.17,20.8-.17l.32,1.51c-7.4,6.19-14.67,12.54-22.26,18.49-3.24,2.54-4,4.73-2.62,8.77,3.19,9.1,5.71,18.45,8.85,28.87l-21.23-13.31c-8.94-5.61-8.93-5.61-17.8.53L255.88,297.4c2.64-10.8,4.84-20.54,7.49-30.16,1-3.54.11-5.46-2.76-7.55C252.66,253.93,245,247.84,236,241Z" transform="translate(-92.82 -204.96)"/><path d="M260.13,326.23c-5.52,4.59-10.84,9.44-16.63,13.65-3.27,2.38-3.37,4.6-2.2,8,2.31,6.75,4.21,13.65,6.67,21.79L224.34,355,201.5,370.72c2-7.87,3.61-14.74,5.61-21.49,1.14-3.81.79-6.28-2.89-8.69-5.84-3.82-11.19-8.38-17.93-13.53,8.28-.62,15.29-1.52,22.29-1.53,4.34,0,6.08-1.72,7.24-5.58,2.06-6.81,4.6-13.47,7.26-21.12,3.19,7.83,6.22,14.67,8.72,21.7,1.17,3.29,2.93,4.36,6.25,4.27,7.29-.18,14.58-.05,21.87-.05Z" transform="translate(-92.82 -204.96)"/><path d="M439.27,371.88l68.25,4.89-45,51.93Z" transform="translate(-92.82 -204.96)"/><path d="M439,530.11l23.51-56.63,44.95,51.9Z" transform="translate(-92.82 -204.96)"/><path d="M350.49,585.3l56.6-23.49c-1.61,22.83-3.18,45-4.84,68.46Z" transform="translate(-92.82 -204.96)"/><path d="M248.89,561.81l56.61,23.48-51.72,44.77C252.12,606.83,250.53,584.7,248.89,561.81Z" transform="translate(-92.82 -204.96)"/></svg>